<svg xmlns="http://www.w3.org/2000/svg" viewBox="0 0 24 24" fill="none" stroke="currentColor" stroke-width="1.8" stroke-linecap="round" stroke-linejoin="round"><path d="M5.000 3.672 C 4.663 3.761,4.408 3.913,4.140 4.185 C 3.898 4.432,3.707 4.779,3.642 5.091 C 3.612 5.237,3.602 7.349,3.609 12.120 L 3.620 18.940 3.713 19.170 C 3.908 19.653,4.348 20.092,4.832 20.288 L 5.060 20.380 12.000 20.380 L 18.940 20.380 19.170 20.287 C 19.653 20.092,20.092 19.652,20.288 19.168 L 20.380 18.940 20.391 13.900 C 20.401 9.292,20.397 8.845,20.336 8.680 C 20.281 8.529,19.893 8.122,17.945 6.167 C 16.641 4.859,15.541 3.787,15.440 3.727 L 15.260 3.620 10.260 3.612 C 5.659 3.605,5.239 3.609,5.000 3.672 M7.080 6.938 C 7.080 7.881,7.097 8.553,7.123 8.676 C 7.182 8.953,7.350 9.168,7.604 9.295 L 7.816 9.400 11.003 9.400 L 14.191 9.400 14.405 9.288 C 14.666 9.152,14.825 8.936,14.880 8.645 C 14.902 8.526,14.920 7.815,14.920 7.065 L 14.920 5.700 16.760 7.540 L 18.600 9.380 18.590 13.980 L 18.580 18.580 17.990 18.591 L 17.400 18.602 17.400 15.689 C 17.400 12.570,17.400 12.575,17.196 12.140 C 17.080 11.893,16.788 11.577,16.511 11.398 C 16.057 11.104,16.244 11.114,11.880 11.128 L 7.980 11.140 7.700 11.276 C 7.348 11.448,6.937 11.848,6.792 12.160 C 6.604 12.563,6.600 12.635,6.600 15.703 L 6.600 18.602 6.010 18.591 L 5.420 18.580 5.410 12.040 C 5.404 8.443,5.408 5.478,5.418 5.450 C 5.433 5.412,5.639 5.400,6.259 5.400 L 7.080 5.400 7.080 6.938 M13.080 6.500 L 13.080 7.600 11.000 7.600 L 8.920 7.600 8.920 6.500 L 8.920 5.400 11.000 5.400 L 13.080 5.400 13.080 6.500 M15.590 15.750 L 15.580 18.580 12.000 18.580 L 8.420 18.580 8.410 15.750 L 8.399 12.920 12.000 12.920 L 15.601 12.920 15.590 15.750 " stroke="none" fill-rule="evenodd" fill="black"></path></svg>